<svg width="24" height="24" viewBox="0 0 24 24" fill="none" xmlns="http://www.w3.org/2000/svg">
<path d="M20.25 12H3.75C3.33579 12 3 12.3358 3 12.75C3 13.1642 3.33579 13.5 3.75 13.5H20.25C20.6642 13.5 21 13.1642 21 12.75C21 12.3358 20.6642 12 20.25 12Z" fill="black"/>
<path d="M20.25 6H3.75C3.33579 6 3 6.33579 3 6.75C3 7.16421 3.33579 7.5 3.75 7.5H20.25C20.6642 7.5 21 7.16421 21 6.75C21 6.33579 20.6642 6 20.25 6Z" fill="black"/>
<path d="M14.25 18H3.75C3.33579 18 3 18.3358 3 18.75C3 19.1642 3.33579 19.5 3.75 19.5H14.25C14.6642 19.5 15 19.1642 15 18.75C15 18.3358 14.6642 18 14.25 18Z" fill="black"/>
</svg>
