<svg width="24" height="24" viewBox="0 0 24 24" fill="none" xmlns="http://www.w3.org/2000/svg">
<path d="M11.52 14.38V9.38C11.52 9.10386 11.7438 8.88 12.02 8.88C12.2961 8.88 12.52 9.10386 12.52 9.38V14.38C12.52 14.6561 12.2961 14.88 12.02 14.88C11.7438 14.88 11.52 14.6561 11.52 14.38Z" fill="black"/>
<path d="M12 4C7.73743 4 4.25349 6.917 4.01323 10.5941C3.99861 10.8178 4.18175 11 4.40595 11C4.61638 11 4.79374 10.8422 4.83063 10.6351C5.07037 9.28909 6.30689 4.68057 12 4.68057C17.709 4.68057 18.9365 9.31485 19.1714 10.6463C19.2068 10.8473 19.3788 11 19.583 11C19.8094 11 19.9901 10.8092 19.9646 10.5843C19.5463 6.89177 16.4137 4 12 4Z" fill="black"/>
<path d="M23 12C23 18.0751 18.0751 23 12 23C5.92487 23 1 18.0751 1 12C1 5.92487 5.92487 1 12 1C18.0751 1 23 5.92487 23 12ZM1.83652 12C1.83652 17.6131 6.38687 22.1635 12 22.1635C17.6131 22.1635 22.1635 17.6131 22.1635 12C22.1635 6.38687 17.6131 1.83652 12 1.83652C6.38687 1.83652 1.83652 6.38687 1.83652 12Z" fill="black"/>
</svg>
