<svg width="24" height="24" viewBox="0 0 24 24" fill="none" xmlns="http://www.w3.org/2000/svg">
<path d="M22.44 9.15997H19.94C19.6639 9.15997 19.44 8.93612 19.44 8.65997C19.44 8.38383 19.6639 8.15997 19.94 8.15997H22.44C22.7161 8.15997 22.94 8.38383 22.94 8.65997C22.94 8.93612 22.7161 9.15997 22.44 9.15997Z" fill="black"/>
<path d="M20.8678 13.8684L18.8581 12.3813C18.6362 12.217 18.5894 11.9039 18.7536 11.682C18.9179 11.46 19.231 11.4132 19.453 11.5774L21.4626 13.0645C21.6846 13.2288 21.7314 13.5419 21.5671 13.7638C21.4029 13.9858 21.0898 14.0326 20.8678 13.8684Z" fill="black"/>
<path d="M20.3324 3.8157L18.8629 5.83824C18.7006 6.06165 18.3879 6.11117 18.1645 5.94886C17.9411 5.78655 17.8916 5.47386 18.0539 5.25046L19.5234 3.22792C19.6857 3.00451 19.9984 2.95499 20.2218 3.1173C20.4452 3.27961 20.4947 3.5923 20.3324 3.8157Z" fill="black"/>
<path d="M14.823 2.02699L15.106 4.51092C15.1373 4.78529 14.9402 5.03305 14.6659 5.06431C14.3915 5.09557 14.1437 4.89849 14.1125 4.62412L13.8295 2.14019C13.7982 1.86583 13.9953 1.61807 14.2696 1.58681C14.544 1.55555 14.7918 1.75262 14.823 2.02699Z" fill="black"/>
<path d="M9.81318 3.70684L11.7142 5.33046C11.9242 5.5098 11.949 5.82541 11.7697 6.03539C11.5903 6.24537 11.2747 6.2702 11.0647 6.09086L9.16373 4.46724C8.95375 4.2879 8.92891 3.9723 9.10825 3.76232C9.28759 3.55234 9.6032 3.5275 9.81318 3.70684Z" fill="black"/>
<path d="M14.8362 11.7897V11.2897V11.7897ZM13.7977 11.7897L13.3119 11.9083C13.3666 12.1322 13.5672 12.2897 13.7977 12.2897V11.7897ZM7.41812 20.5113L7.41812 20.0113L7.41773 20.0113L7.41812 20.5113ZM17.7503 13.067L17.3869 13.4104L17.3869 13.4104L17.7503 13.067ZM12.84 6.84002L13.2183 7.16696L13.2183 7.16696L12.84 6.84002ZM15.84 5.94002L15.7242 6.42643L15.84 5.94002ZM18.42 8.76002L17.9284 8.85107L18.42 8.76002ZM17.94 11.22L17.5081 10.9681L17.94 11.22ZM16.8738 12.36L16.616 12.7884L16.616 12.7884L16.8738 12.36ZM14.8362 11.2897H13.7977V12.2897H14.8362V11.2897ZM14.2834 11.6712C13.9541 10.3214 13.2727 9.09303 12.3133 8.12702L11.6038 8.83171C12.4315 9.66513 13.0246 10.7305 13.3119 11.9083L14.2834 11.6712ZM12.3133 8.12702C11.3536 7.16077 10.1539 6.49572 8.849 6.21151L8.63619 7.18861C9.74765 7.43069 10.7763 7.99854 11.6038 8.83171L12.3133 8.12702ZM8.849 6.21151C7.54394 5.92726 6.1898 6.03627 4.94163 6.52521L5.30636 7.45632C6.37171 7.039 7.52494 6.94657 8.63619 7.18861L8.849 6.21151ZM4.94163 6.52521C3.69375 7.01403 2.60454 7.86181 1.79523 8.96823L2.60235 9.55862C3.30302 8.60073 4.24071 7.87376 5.30636 7.45632L4.94163 6.52521ZM1.79523 8.96823C0.986081 10.0744 0.488236 11.3958 0.355312 12.7819L1.35074 12.8774C1.46688 11.6664 1.90152 10.5167 2.60235 9.55862L1.79523 8.96823ZM0.355312 12.7819C0.22239 14.168 0.45934 15.5667 1.04079 16.8197L1.94789 16.3988C1.44203 15.3086 1.23461 14.0884 1.35074 12.8774L0.355312 12.7819ZM1.04079 16.8197C1.62231 18.0729 2.52626 19.1324 3.65342 19.8749L4.20351 19.0398C3.23636 18.4027 2.45367 17.4888 1.94789 16.3988L1.04079 16.8197ZM3.65342 19.8749C4.7809 20.6176 6.08542 21.0124 7.41851 21.0113L7.41773 20.0113C6.28386 20.0122 5.17035 19.6767 4.20351 19.0398L3.65342 19.8749ZM7.41812 21.0113H14.8362V20.0113H7.41812V21.0113ZM14.8362 21.0113C16.0712 21.0113 17.2495 20.4919 18.1137 19.5775L17.3869 18.8906C16.7054 19.6118 15.7872 20.0113 14.8362 20.0113V21.0113ZM18.1137 19.5775C18.977 18.664 19.4574 17.4309 19.4574 16.1505H18.4574C18.4574 17.1833 18.0694 18.1685 17.3869 18.8906L18.1137 19.5775ZM19.4574 16.1505C19.4574 14.8702 18.977 13.637 18.1137 12.7235L17.3869 13.4104C18.0694 14.1326 18.4574 15.1177 18.4574 16.1505H19.4574ZM12.435 8.63081C12.4707 8.51852 12.492 8.39455 12.5046 8.33388C12.5197 8.26136 12.5368 8.19312 12.5707 8.10901C12.6399 7.93686 12.7972 7.65429 13.2183 7.16696L12.4617 6.51309C12.0014 7.04574 11.7687 7.42317 11.6429 7.73586C11.5792 7.89417 11.5476 8.02455 11.5256 8.12997C11.5012 8.24725 11.4971 8.28053 11.482 8.32792L12.435 8.63081ZM13.2183 7.16696C13.7743 6.52366 14.8767 6.22463 15.7242 6.42643L15.9558 5.45362C14.7957 5.17741 13.294 5.5501 12.4617 6.51309L13.2183 7.16696ZM15.7242 6.42643C16.7987 6.68225 17.6657 7.43253 17.9284 8.85107L18.9117 8.66898C18.5744 6.84751 17.4013 5.79779 15.9558 5.45362L15.7242 6.42643ZM17.9284 8.85107C18.0544 9.5318 17.8787 10.3329 17.5081 10.9681L18.3719 11.472C18.8414 10.6671 19.0886 9.62455 18.9117 8.66898L17.9284 8.85107ZM18.1137 12.7235C17.8195 12.4122 17.4888 12.1466 17.1316 11.9316L16.616 12.7884C16.8949 12.9563 17.1546 13.1646 17.3869 13.4104L18.1137 12.7235ZM17.1316 11.9316C16.44 11.5154 15.65 11.2897 14.8362 11.2897V12.2897C15.4639 12.2897 16.0763 12.4636 16.616 12.7884L17.1316 11.9316ZM17.5081 10.9681C17.374 11.1981 17.1484 11.4443 16.9355 11.6458C16.8325 11.7433 16.7392 11.8241 16.672 11.8802C16.6385 11.9082 16.6118 11.9298 16.594 11.944C16.5851 11.9511 16.5784 11.9563 16.5743 11.9596C16.5722 11.9612 16.5707 11.9623 16.57 11.9629C16.5696 11.9632 16.5693 11.9634 16.5693 11.9634C16.5693 11.9635 16.5693 11.9635 16.5693 11.9634C16.5694 11.9634 16.5694 11.9634 16.5695 11.9633C16.5695 11.9633 16.5695 11.9633 16.5695 11.9633C16.5696 11.9632 16.5696 11.9632 16.8738 12.36C17.178 12.7568 17.1781 12.7568 17.1781 12.7568C17.1781 12.7567 17.1782 12.7567 17.1782 12.7567C17.1783 12.7566 17.1784 12.7565 17.1786 12.7564C17.1788 12.7562 17.1791 12.756 17.1794 12.7558C17.18 12.7553 17.1809 12.7546 17.1819 12.7539C17.1838 12.7523 17.1865 12.7503 17.1898 12.7477C17.1965 12.7425 17.2057 12.7352 17.2174 12.7259C17.2406 12.7074 17.2732 12.681 17.3131 12.6477C17.3926 12.5813 17.5019 12.4866 17.623 12.372C17.858 12.1495 18.1656 11.8257 18.3719 11.472L17.5081 10.9681Z" fill="black"/>
</svg>
