<svg width="24" height="24" viewBox="0 0 24 24" fill="none" xmlns="http://www.w3.org/2000/svg">
<path d="M9.59 4.59001L9.79491 5.0461C9.85072 5.02102 9.90146 4.98591 9.9446 4.94252L9.59 4.59001ZM11 8.00001L11.0021 7.50001H11V8.00001ZM2 8.00001L1.79509 7.54393C1.58004 7.64055 1.4617 7.87427 1.5111 8.10479C1.56051 8.33532 1.76424 8.50001 2 8.50001L2 8.00001ZM12.59 19.41L12.9446 19.0575C12.8883 19.0009 12.8193 18.9586 12.7433 18.9341L12.59 19.41ZM14 16L14 16.5L14.0021 16.5L14 16ZM2 16V15.5C1.7538 15.5 1.54425 15.6792 1.50605 15.9224C1.46786 16.1657 1.6124 16.4005 1.84675 16.4759L2 16ZM17.3769 7.37601C17.1814 7.57103 17.181 7.88761 17.376 8.08312C17.571 8.27863 17.8876 8.27903 18.0831 8.08401L17.3769 7.37601ZM19.5 12L19.5 12.5L19.5009 12.5L19.5 12ZM2 11.5C1.72386 11.5 1.5 11.7239 1.5 12C1.5 12.2762 1.72386 12.5 2 12.5V11.5ZM9.9446 4.94252C10.1188 4.76725 10.3337 4.63775 10.57 4.56552L10.2777 3.60919C9.88384 3.72956 9.52578 3.9454 9.2354 4.23751L9.9446 4.94252ZM10.57 4.56552C10.8063 4.4933 11.0569 4.48058 11.2993 4.52851L11.4932 3.5475C11.0892 3.46762 10.6716 3.48881 10.2777 3.60919L10.57 4.56552ZM11.2993 4.52851C11.5417 4.57644 11.7686 4.68353 11.9597 4.84025L12.5938 4.06707C12.2754 3.80586 11.8973 3.62738 11.4932 3.5475L11.2993 4.52851ZM11.9597 4.84025C12.1507 4.99698 12.3001 5.19848 12.3946 5.42686L13.3187 5.04475C13.1613 4.66412 12.9123 4.32827 12.5938 4.06707L11.9597 4.84025ZM12.3946 5.42686C12.489 5.65524 12.5255 5.90341 12.5009 6.14931L13.496 6.24884C13.537 5.839 13.4761 5.42538 13.3187 5.04475L12.3946 5.42686ZM12.5009 6.14931C12.4764 6.39522 12.3914 6.63124 12.2536 6.83639L13.0837 7.39396C13.3134 7.05204 13.455 6.65868 13.496 6.24884L12.5009 6.14931ZM12.2536 6.83639C12.1158 7.04154 11.9295 7.20946 11.7111 7.32524L12.1796 8.20871C12.5435 8.01575 12.8541 7.73588 13.0837 7.39396L12.2536 6.83639ZM11.7111 7.32524C11.4928 7.44102 11.2492 7.50105 11.0021 7.50002L10.9979 8.50001C11.4098 8.50174 11.8157 8.40167 12.1796 8.20871L11.7111 7.32524ZM11 7.50001H2V8.50001H11V7.50001ZM2.20491 8.4561L9.79491 5.0461L9.38509 4.13393L1.79509 7.54393L2.20491 8.4561ZM12.2354 19.7625C12.5258 20.0546 12.8838 20.2705 13.2777 20.3908L13.57 19.4345C13.3337 19.3623 13.1188 19.2328 12.9446 19.0575L12.2354 19.7625ZM13.2777 20.3908C13.6716 20.5112 14.0892 20.5324 14.4932 20.4525L14.2993 19.4715C14.0569 19.5194 13.8063 19.5067 13.57 19.4345L13.2777 20.3908ZM14.4932 20.4525C14.8973 20.3726 15.2754 20.1942 15.5938 19.933L14.9597 19.1598C14.7686 19.3165 14.5417 19.4236 14.2993 19.4715L14.4932 20.4525ZM15.5938 19.933C15.9123 19.6717 16.1613 19.3359 16.3187 18.9553L15.3946 18.5732C15.3001 18.8015 15.1507 19.003 14.9597 19.1598L15.5938 19.933ZM16.3187 18.9553C16.4761 18.5746 16.537 18.161 16.496 17.7512L15.5009 17.8507C15.5255 18.0966 15.489 18.3448 15.3946 18.5732L16.3187 18.9553ZM16.496 17.7512C16.455 17.3413 16.3134 16.948 16.0837 16.6061L15.2536 17.1636C15.3914 17.3688 15.4764 17.6048 15.5009 17.8507L16.496 17.7512ZM16.0837 16.6061C15.8541 16.2641 15.5435 15.9843 15.1796 15.7913L14.7111 16.6748C14.9295 16.7906 15.1158 16.9585 15.2536 17.1636L16.0837 16.6061ZM15.1796 15.7913C14.8157 15.5983 14.4098 15.4983 13.9979 15.5L14.0021 16.5C14.2492 16.499 14.4928 16.559 14.7111 16.6748L15.1796 15.7913ZM14 15.5H2V16.5H14V15.5ZM1.84675 16.4759L12.4367 19.8859L12.7433 18.9341L2.15325 15.5241L1.84675 16.4759ZM18.0831 8.08401C18.3158 7.85192 18.6021 7.68075 18.9166 7.58562L18.6272 6.62843C18.1553 6.77111 17.7259 7.02787 17.3769 7.37601L18.0831 8.08401ZM18.9166 7.58562C19.2312 7.4905 19.5644 7.47437 19.8867 7.53864L20.0823 6.55796C19.5988 6.46154 19.0991 6.48574 18.6272 6.62843L18.9166 7.58562ZM19.8867 7.53864C20.209 7.60292 20.5105 7.74563 20.7645 7.95415L21.399 7.18121C21.018 6.86844 20.5657 6.65437 20.0823 6.55796L19.8867 7.53864ZM20.7645 7.95415C21.0185 8.16267 21.2172 8.43057 21.3431 8.73417L22.2669 8.35124C22.0781 7.89585 21.78 7.49399 21.399 7.18121L20.7645 7.95415ZM21.3431 8.73417C21.4689 9.03776 21.518 9.36769 21.486 9.69477L22.4813 9.79215C22.5293 9.30153 22.4556 8.80663 22.2669 8.35124L21.3431 8.73417ZM21.486 9.69477C21.454 10.0219 21.3419 10.336 21.1596 10.6095L21.9916 11.1642C22.2651 10.754 22.4333 10.2828 22.4813 9.79215L21.486 9.69477ZM21.1596 10.6095C20.9773 10.8829 20.7304 11.1072 20.4408 11.2625L20.9134 12.1438C21.3479 11.9108 21.7182 11.5743 21.9916 11.1642L21.1596 10.6095ZM20.4408 11.2625C20.1512 11.4179 19.8277 11.4994 19.4991 11.5L19.5009 12.5C19.9939 12.4991 20.479 12.3768 20.9134 12.1438L20.4408 11.2625ZM19.5 11.5H2V12.5H19.5V11.5Z" fill="black"/>
</svg>
