<svg width="24" height="24" viewBox="0 0 24 24" fill="none" xmlns="http://www.w3.org/2000/svg">
<path d="M7.9395 2.454C7.65829 2.73529 7.50032 3.11675 7.50032 3.5145C7.50032 3.91224 7.65829 4.2937 7.9395 4.575L15.3645 12L7.9395 19.425C7.66626 19.7079 7.51507 20.0868 7.51849 20.4801C7.52191 20.8734 7.67966 21.2496 7.95777 21.5277C8.23588 21.8058 8.6121 21.9636 9.0054 21.967C9.39869 21.9704 9.7776 21.8192 10.0605 21.546L18.546 13.0605C18.8272 12.7792 18.9852 12.3977 18.9852 12C18.9852 11.6022 18.8272 11.2208 18.546 10.9395L10.0605 2.454C9.77921 2.17279 9.39775 2.01482 9 2.01482C8.60225 2.01482 8.22079 2.17279 7.9395 2.454V2.454Z" fill="black"/>
</svg>
