<svg width="24" height="24" viewBox="0 0 24 24" fill="none" xmlns="http://www.w3.org/2000/svg">
<path d="M17.3033 5.53031L5.63604 17.1976C5.34315 17.4905 5.34315 17.9653 5.63604 18.2582C5.92894 18.5511 6.40381 18.5511 6.6967 18.2582L18.364 6.59097C18.6569 6.29808 18.6569 5.82321 18.364 5.53031C18.0711 5.23742 17.5962 5.23742 17.3033 5.53031Z" fill="black"/>
<path d="M18.2583 17.3419L6.591 5.67465C6.29811 5.38175 5.82323 5.38175 5.53034 5.67465C5.23745 5.96754 5.23745 6.44241 5.53034 6.73531L17.1976 18.4026C17.4905 18.6955 17.9654 18.6955 18.2583 18.4026C18.5512 18.1097 18.5512 17.6348 18.2583 17.3419Z" fill="black"/>
</svg>
