<svg width="24" height="24" viewBox="0 0 24 24" fill="none" xmlns="http://www.w3.org/2000/svg">
<path d="M19 11C19 15.4183 15.4183 19 11 19C6.58172 19 3 15.4183 3 11C3 6.58172 6.58172 3 11 3C15.4183 3 19 6.58172 19 11ZM4 11C4 15.0823 6.91772 18 11 18C15.0823 18 18 15.0823 18 11C18 6.91772 15.0823 4 11 4C6.91772 4 4 6.91772 4 11Z" fill="black"/>
<path d="M21.396 20.7166L17.0058 16.4018C16.8088 16.2082 16.4923 16.211 16.2987 16.4079C16.1051 16.6049 16.1079 16.9215 16.3048 17.115L20.6951 21.4298C20.892 21.6234 21.2086 21.6207 21.4022 21.4237C21.5957 21.2268 21.593 20.9102 21.396 20.7166Z" fill="black"/>
</svg>
