<svg width="24" height="24" viewBox="0 0 24 24" fill="none" xmlns="http://www.w3.org/2000/svg">
<path d="M19 11C19 15.4183 15.4183 19 11 19C6.58172 19 3 15.4183 3 11C3 6.58172 6.58172 3 11 3C15.4183 3 19 6.58172 19 11ZM4 11C4 15.0823 6.91772 18 11 18C15.0823 18 18 15.0823 18 11C18 6.91772 15.0823 4 11 4C6.91772 4 4 6.91772 4 11Z" fill="black"/>
<path d="M21.3722 20.6932L17.0296 16.4252C16.8195 16.2187 16.4818 16.2217 16.2753 16.4318C16.0688 16.6419 16.0717 16.9796 16.2818 17.1861L20.6244 21.4541C20.8345 21.6606 21.1722 21.6577 21.3787 21.4476C21.5852 21.2374 21.5823 20.8997 21.3722 20.6932Z" fill="black"/>
</svg>
