<svg width="24" height="24" viewBox="0 0 24 24" fill="none" xmlns="http://www.w3.org/2000/svg">
<path d="M22.44 9.16H19.94C19.6639 9.16 19.44 8.93615 19.44 8.66C19.44 8.38386 19.6639 8.16 19.94 8.16H22.44C22.7161 8.16 22.94 8.38386 22.94 8.66C22.94 8.93615 22.7161 9.16 22.44 9.16Z" fill="black"/>
<path d="M20.8678 13.8684L18.8581 12.3813C18.6362 12.217 18.5894 11.9039 18.7536 11.682C18.9179 11.46 19.231 11.4132 19.453 11.5774L21.4626 13.0645C21.6846 13.2288 21.7314 13.5419 21.5671 13.7638C21.4029 13.9858 21.0898 14.0326 20.8678 13.8684Z" fill="black"/>
<path d="M20.3324 3.8157L18.8629 5.83824C18.7006 6.06165 18.3879 6.11117 18.1645 5.94886C17.9411 5.78655 17.8916 5.47386 18.0539 5.25046L19.5234 3.22792C19.6857 3.00451 19.9984 2.95499 20.2218 3.1173C20.4452 3.27961 20.4947 3.5923 20.3324 3.8157Z" fill="black"/>
<path d="M14.823 2.02699L15.106 4.51092C15.1373 4.78529 14.9402 5.03305 14.6658 5.06431C14.3915 5.09557 14.1437 4.89849 14.1124 4.62412L13.8294 2.14019C13.7982 1.86583 13.9952 1.61807 14.2696 1.58681C14.544 1.55555 14.7917 1.75262 14.823 2.02699Z" fill="black"/>
<path d="M9.81319 3.70687L11.7142 5.33049C11.9242 5.50983 11.949 5.82544 11.7697 6.03542C11.5903 6.2454 11.2747 6.27023 11.0648 6.09089L9.16374 4.46727C8.95376 4.28793 8.92892 3.97233 9.10826 3.76235C9.2876 3.55237 9.60321 3.52753 9.81319 3.70687Z" fill="black"/>
<path d="M14.8362 11.7897V11.2897V11.7897ZM13.7977 11.7897L13.3119 11.9082C13.3666 12.1321 13.5672 12.2897 13.7977 12.2897V11.7897ZM7.4181 20.5113V20.0113L7.4177 20.0113L7.4181 20.5113ZM17.7503 13.0669L17.3869 13.4104L17.7503 13.0669ZM12.84 6.83999L13.2183 7.16693L12.84 6.83999ZM15.84 5.93999L15.7242 6.42639L15.84 5.93999ZM18.42 8.75999L17.9284 8.85103L18.42 8.75999ZM17.94 11.22L17.5081 10.9681L17.94 11.22ZM16.8738 12.36L16.616 12.7884L16.8738 12.36ZM14.8362 11.2897H13.7977V12.2897H14.8362V11.2897ZM14.2834 11.6712C13.9541 10.3214 13.2727 9.093 12.3133 8.12699L11.6037 8.83168C12.4315 9.6651 13.0245 10.7305 13.3119 11.9082L14.2834 11.6712ZM12.3133 8.12699C11.3536 7.16074 10.1538 6.49569 8.84898 6.21148L8.63617 7.18858C9.74763 7.43066 10.7762 7.99851 11.6037 8.83168L12.3133 8.12699ZM8.84898 6.21148C7.54392 5.92723 6.18978 6.03624 4.9416 6.52518L5.30634 7.45629C6.37169 7.03897 7.52492 6.94654 8.63617 7.18858L8.84898 6.21148ZM4.9416 6.52518C3.69373 7.014 2.60452 7.86178 1.79521 8.9682L2.60233 9.55858C3.30299 8.6007 4.24069 7.87373 5.30634 7.45629L4.9416 6.52518ZM1.79521 8.9682C0.986059 10.0744 0.488213 11.3958 0.355289 12.7819L1.35072 12.8773C1.46685 11.6664 1.9015 10.5167 2.60233 9.55858L1.79521 8.9682ZM0.355289 12.7819C0.222367 14.168 0.459318 15.5666 1.04077 16.8197L1.94786 16.3988C1.44201 15.3086 1.23459 14.0884 1.35072 12.8773L0.355289 12.7819ZM1.04077 16.8197C1.62229 18.0729 2.52624 19.1324 3.6534 19.8749L4.20349 19.0398C3.23633 18.4027 2.45365 17.4887 1.94786 16.3988L1.04077 16.8197ZM3.6534 19.8749C4.78088 20.6176 6.08539 21.0123 7.41849 21.0113L7.4177 20.0113C6.28384 20.0122 5.17033 19.6766 4.20349 19.0398L3.6534 19.8749ZM7.4181 21.0113H14.8362V20.0113H7.4181V21.0113ZM14.8362 21.0113C16.0712 21.0113 17.2495 20.4919 18.1137 19.5775L17.3869 18.8906C16.7053 19.6118 15.7872 20.0113 14.8362 20.0113V21.0113ZM18.1137 19.5775C18.977 18.664 19.4574 17.4308 19.4574 16.1505H18.4574C18.4574 17.1833 18.0694 18.1685 17.3869 18.8906L18.1137 19.5775ZM19.4574 16.1505C19.4574 14.8702 18.977 13.637 18.1137 12.7235L17.3869 13.4104C18.0694 14.1325 18.4574 15.1177 18.4574 16.1505H19.4574ZM12.435 8.63078C12.4707 8.51849 12.492 8.39452 12.5046 8.33385C12.5197 8.26133 12.5368 8.19309 12.5706 8.10898C12.6399 7.93683 12.7971 7.65426 13.2183 7.16693L12.4617 6.51306C12.0014 7.04571 11.7686 7.42314 11.6429 7.73583C11.5792 7.89414 11.5476 8.02452 11.5256 8.12994C11.5012 8.24722 11.4971 8.2805 11.482 8.32789L12.435 8.63078ZM13.2183 7.16693C13.7743 6.52363 14.8767 6.2246 15.7242 6.42639L15.9558 5.45359C14.7957 5.17738 13.2939 5.55007 12.4617 6.51306L13.2183 7.16693ZM15.7242 6.42639C16.7987 6.68222 17.6657 7.4325 17.9284 8.85103L18.9116 8.66895C18.5743 6.84748 17.4013 5.79775 15.9558 5.45359L15.7242 6.42639ZM17.9284 8.85103C18.0544 9.53177 17.8786 10.3329 17.5081 10.9681L18.3719 11.4719C18.8414 10.6671 19.0886 9.62452 18.9116 8.66895L17.9284 8.85103ZM18.1137 12.7235C17.8195 12.4122 17.4888 12.1466 17.1316 11.9316L16.616 12.7884C16.8949 12.9562 17.1546 13.1646 17.3869 13.4104L18.1137 12.7235ZM17.1316 11.9316C16.44 11.5154 15.6499 11.2897 14.8362 11.2897V12.2897C15.4638 12.2897 16.0762 12.4636 16.616 12.7884L17.1316 11.9316ZM17.5081 10.9681C17.3739 11.1981 17.1484 11.4442 16.9355 11.6458C16.8325 11.7432 16.7392 11.8241 16.672 11.8802C16.6385 11.9082 16.6118 11.9298 16.594 11.944C16.585 11.9511 16.5784 11.9563 16.5742 11.9596C16.5722 11.9612 16.5707 11.9623 16.5699 11.9629C16.5695 11.9632 16.5693 11.9634 16.5693 11.9634C16.5692 11.9634 16.5693 11.9634 16.5693 11.9634C16.5693 11.9634 16.5694 11.9633 16.5694 11.9633C16.5695 11.9633 16.5695 11.9632 16.5695 11.9632C16.5696 11.9632 16.5696 11.9632 16.8738 12.36C17.178 12.7568 17.178 12.7568 17.1781 12.7567C17.1781 12.7567 17.1782 12.7567 17.1782 12.7566C17.1783 12.7566 17.1784 12.7565 17.1785 12.7564C17.1788 12.7562 17.1791 12.756 17.1794 12.7557C17.18 12.7552 17.1808 12.7546 17.1818 12.7538C17.1838 12.7523 17.1865 12.7502 17.1898 12.7476C17.1965 12.7424 17.2057 12.7352 17.2173 12.7259C17.2405 12.7074 17.2732 12.681 17.313 12.6477C17.3925 12.5813 17.5019 12.4866 17.6229 12.372C17.858 12.1495 18.1656 11.8256 18.3719 11.4719L17.5081 10.9681Z" fill="black"/>
</svg>
