<svg width="24" height="24" viewBox="0 0 24 24" fill="none" xmlns="http://www.w3.org/2000/svg">
<path d="M22.44 9.16003H19.94C19.6639 9.16003 19.44 8.93618 19.44 8.66003C19.44 8.38389 19.6639 8.16003 19.94 8.16003H22.44C22.7161 8.16003 22.94 8.38389 22.94 8.66003C22.94 8.93618 22.7161 9.16003 22.44 9.16003Z" fill="black"/>
<path d="M20.8678 13.8684L18.8581 12.3813C18.6362 12.217 18.5894 11.9039 18.7536 11.682C18.9179 11.46 19.231 11.4132 19.453 11.5774L21.4626 13.0645C21.6846 13.2288 21.7314 13.5419 21.5671 13.7638C21.4029 13.9858 21.0898 14.0326 20.8678 13.8684Z" fill="black"/>
<path d="M20.3324 3.81573L18.8629 5.83827C18.7006 6.06167 18.3879 6.1112 18.1645 5.94888C17.9411 5.78657 17.8916 5.47389 18.0539 5.25048L19.5234 3.22794C19.6857 3.00454 19.9984 2.95501 20.2218 3.11733C20.4452 3.27964 20.4947 3.59232 20.3324 3.81573Z" fill="black"/>
<path d="M14.823 2.02702L15.106 4.51095C15.1373 4.78532 14.9402 5.03308 14.6658 5.06434C14.3915 5.0956 14.1437 4.89852 14.1124 4.62416L13.8294 2.14023C13.7982 1.86586 13.9952 1.6181 14.2696 1.58684C14.544 1.55558 14.7917 1.75266 14.823 2.02702Z" fill="black"/>
<path d="M9.81318 3.7069L11.7142 5.33052C11.9242 5.50986 11.949 5.82547 11.7697 6.03545C11.5903 6.24543 11.2747 6.27027 11.0647 6.09093L9.16373 4.46731C8.95375 4.28797 8.92891 3.97236 9.10825 3.76238C9.28759 3.5524 9.6032 3.52756 9.81318 3.7069Z" fill="black"/>
<path d="M14.8362 11.7898V11.2898V11.7898ZM13.7977 11.7898L13.3119 11.9083C13.3665 12.1322 13.5672 12.2898 13.7977 12.2898V11.7898ZM7.41809 20.5113V20.0113L7.4177 20.0113L7.41809 20.5113ZM17.7503 13.067L17.3869 13.4104L17.7503 13.067ZM12.84 6.84005L13.2183 7.16698L12.84 6.84005ZM15.84 5.94004L15.7242 6.42645L15.84 5.94004ZM18.42 8.76004L17.9284 8.85109L18.42 8.76004ZM17.94 11.22L17.5081 10.9681L17.94 11.22ZM16.8738 12.36L16.616 12.7884L16.8738 12.36ZM14.8362 11.2898H13.7977V12.2898H14.8362V11.2898ZM14.2834 11.6712C13.954 10.3215 13.2727 9.09305 12.3133 8.12704L11.6037 8.83173C12.4315 9.66515 13.0245 10.7305 13.3119 11.9083L14.2834 11.6712ZM12.3133 8.12704C11.3536 7.16079 10.1538 6.49574 8.84897 6.21154L8.63616 7.18863C9.74762 7.43071 10.7762 7.99856 11.6037 8.83173L12.3133 8.12704ZM8.84897 6.21154C7.54391 5.92729 6.18977 6.03629 4.94159 6.52523L5.30633 7.45634C6.37168 7.03902 7.52491 6.94659 8.63616 7.18863L8.84897 6.21154ZM4.94159 6.52523C3.69372 7.01405 2.60451 7.86184 1.7952 8.96825L2.60232 9.55864C3.30299 8.60075 4.24068 7.87378 5.30633 7.45634L4.94159 6.52523ZM1.7952 8.96825C0.986051 10.0744 0.488206 11.3958 0.355281 12.7819L1.35071 12.8774C1.46684 11.6664 1.90149 10.5167 2.60232 9.55864L1.7952 8.96825ZM0.355281 12.7819C0.22236 14.168 0.45931 15.5667 1.04076 16.8197L1.94786 16.3988C1.442 15.3087 1.23458 14.0884 1.35071 12.8774L0.355281 12.7819ZM1.04076 16.8197C1.62228 18.0729 2.52623 19.1325 3.65339 19.8749L4.20348 19.0398C3.23632 18.4028 2.45364 17.4888 1.94786 16.3988L1.04076 16.8197ZM3.65339 19.8749C4.78087 20.6176 6.08539 21.0124 7.41848 21.0113L7.4177 20.0113C6.28383 20.0122 5.17032 19.6767 4.20348 19.0398L3.65339 19.8749ZM7.41809 21.0113H14.8362V20.0113H7.41809V21.0113ZM14.8362 21.0113C16.0712 21.0113 17.2495 20.4919 18.1137 19.5775L17.3869 18.8907C16.7053 19.6119 15.7872 20.0113 14.8362 20.0113V21.0113ZM18.1137 19.5775C18.977 18.6641 19.4573 17.4309 19.4573 16.1505H18.4573C18.4573 17.1833 18.0694 18.1685 17.3869 18.8907L18.1137 19.5775ZM19.4573 16.1505C19.4573 14.8702 18.977 13.637 18.1137 12.7236L17.3869 13.4104C18.0694 14.1326 18.4573 15.1178 18.4573 16.1505H19.4573ZM12.435 8.63084C12.4707 8.51855 12.492 8.39457 12.5046 8.3339C12.5197 8.26139 12.5368 8.19314 12.5706 8.10903C12.6399 7.93688 12.7971 7.65432 13.2183 7.16698L12.4617 6.51311C12.0014 7.04577 11.7686 7.42319 11.6429 7.73588C11.5792 7.89419 11.5476 8.02457 11.5256 8.13C11.5012 8.24727 11.497 8.28055 11.482 8.32794L12.435 8.63084ZM13.2183 7.16698C13.7743 6.52368 14.8767 6.22466 15.7242 6.42645L15.9558 5.45364C14.7957 5.17743 13.2939 5.55013 12.4617 6.51311L13.2183 7.16698ZM15.7242 6.42645C16.7987 6.68228 17.6657 7.43256 17.9284 8.85109L18.9116 8.669C18.5743 6.84753 17.4013 5.79781 15.9558 5.45364L15.7242 6.42645ZM17.9284 8.85109C18.0544 9.53183 17.8786 10.3329 17.5081 10.9681L18.3719 11.472C18.8414 10.6672 19.0886 9.62457 18.9116 8.669L17.9284 8.85109ZM18.1137 12.7236C17.8195 12.4122 17.4888 12.1466 17.1316 11.9316L16.616 12.7884C16.8949 12.9563 17.1546 13.1646 17.3869 13.4104L18.1137 12.7236ZM17.1316 11.9316C16.44 11.5154 15.6499 11.2898 14.8362 11.2898V12.2898C15.4638 12.2898 16.0762 12.4636 16.616 12.7884L17.1316 11.9316ZM17.5081 10.9681C17.3739 11.1981 17.1484 11.4443 16.9355 11.6458C16.8325 11.7433 16.7392 11.8241 16.672 11.8803C16.6385 11.9082 16.6118 11.9298 16.5939 11.944C16.585 11.9511 16.5784 11.9564 16.5742 11.9596C16.5722 11.9612 16.5707 11.9623 16.5699 11.963C16.5695 11.9633 16.5693 11.9634 16.5693 11.9635C16.5692 11.9635 16.5692 11.9635 16.5693 11.9634C16.5693 11.9634 16.5694 11.9634 16.5694 11.9633C16.5695 11.9633 16.5695 11.9633 16.5695 11.9633C16.5696 11.9632 16.5696 11.9632 16.8738 12.36C17.178 12.7569 17.178 12.7568 17.1781 12.7568C17.1781 12.7568 17.1782 12.7567 17.1782 12.7567C17.1783 12.7566 17.1784 12.7565 17.1785 12.7564C17.1788 12.7563 17.179 12.756 17.1794 12.7558C17.18 12.7553 17.1808 12.7547 17.1818 12.7539C17.1838 12.7524 17.1865 12.7503 17.1898 12.7477C17.1965 12.7425 17.2057 12.7352 17.2173 12.726C17.2405 12.7075 17.2732 12.681 17.313 12.6478C17.3925 12.5813 17.5019 12.4866 17.6229 12.3721C17.858 12.1495 18.1655 11.8257 18.3719 11.472L17.5081 10.9681Z" fill="black"/>
</svg>
