<svg width="24" height="24" viewBox="0 0 24 24" fill="none" xmlns="http://www.w3.org/2000/svg">
<path d="M14.9113 19.862C14.8525 19.7564 14.8207 19.638 14.8188 19.5172C14.8168 19.3964 14.8448 19.277 14.9001 19.1696L16.3988 16.2295M11.2202 19.2152C11.3402 19.2007 11.4547 19.1568 11.5536 19.0874C11.6525 19.018 11.7327 18.9253 11.7871 18.8174L13.7854 14.8973M12.9235 22.6089C12.7734 22.5971 12.6284 22.5485 12.5015 22.4673C12.3746 22.3862 12.2697 22.275 12.196 22.1436C12.1223 22.0123 12.0821 21.8648 12.0789 21.7142C12.0758 21.5636 12.1098 21.4145 12.178 21.2802L15.0921 15.5634" stroke="black" stroke-linecap="round" stroke-linejoin="round"/>
<path d="M18.0014 7.34714V6.84714V7.34714ZM16.7417 7.34714L16.256 7.46567C16.3106 7.68959 16.5112 7.84714 16.7417 7.84714V7.34714ZM9.00419 18.4257C9.28034 18.4255 9.50402 18.2015 9.5038 17.9253C9.50358 17.6492 9.27955 17.4255 9.0034 17.4257L9.00419 18.4257ZM18.0014 17.4257C17.7252 17.4257 17.5014 17.6496 17.5014 17.9257C17.5014 18.2019 17.7252 18.4257 18.0014 18.4257V17.4257ZM21.5359 8.89634L21.1725 9.23977L21.5359 8.89634ZM20.4728 8.03885L20.215 8.46725L20.4728 8.03885ZM18.0014 6.84714H16.7417V7.84714H18.0014V6.84714ZM17.2274 7.22861C16.8324 5.60977 16.0154 4.13717 14.8657 2.97959L14.1562 3.68428C15.1742 4.70926 15.9029 6.01884 16.256 7.46567L17.2274 7.22861ZM14.8657 2.97959C13.7158 1.82177 12.2788 1.02547 10.7167 0.685235L10.5039 1.66233C11.8726 1.96044 13.1384 2.65954 14.1562 3.68428L14.8657 2.97959ZM10.7167 0.685235C9.15439 0.344956 7.53331 0.475404 6.03884 1.06083L6.40358 1.99194C7.71522 1.47813 9.13539 1.36426 10.5039 1.66233L10.7167 0.685235ZM6.03884 1.06083C4.54467 1.64613 3.23967 2.66156 2.26961 3.98774L3.07673 4.57813C3.93815 3.40048 5.09163 2.50586 6.40358 1.99194L6.03884 1.06083ZM2.26961 3.98774C1.29971 5.31371 0.702588 6.89817 0.543149 8.56075L1.53858 8.65621C1.68123 7.16875 2.21515 5.756 3.07673 4.57813L2.26961 3.98774ZM0.543149 8.56075C0.383714 10.2233 0.667972 11.9008 1.36517 13.4033L2.27227 12.9824C1.65066 11.6428 1.39593 10.1437 1.53858 8.65621L0.543149 8.56075ZM1.36517 13.4033C2.06245 14.906 3.14596 16.1756 4.49608 17.0649L5.04617 16.2298C3.85605 15.4459 2.89381 14.3218 2.27227 12.9824L1.36517 13.4033ZM4.49608 17.0649C5.84652 17.9545 7.40846 18.427 9.00419 18.4257L9.0034 17.4257C7.6069 17.4268 6.23597 17.0136 5.04617 16.2298L4.49608 17.0649ZM18.0014 18.4257C19.4691 18.4257 20.8706 17.8085 21.8993 16.72L21.1725 16.0331C20.3264 16.9284 19.1851 17.4257 18.0014 17.4257V18.4257ZM21.8993 16.72C22.9272 15.6324 23.5 14.163 23.5 12.6364H22.5C22.5 13.9155 22.0196 15.1368 21.1725 16.0331L21.8993 16.72ZM23.5 12.6364C23.5 11.1099 22.9272 9.6405 21.8993 8.55291L21.1725 9.23977C22.0196 10.136 22.5 11.3574 22.5 12.6364H23.5ZM21.8993 8.55291C21.5491 8.18227 21.1555 7.86618 20.7306 7.61046L20.215 8.46725C20.5616 8.67586 20.8842 8.93466 21.1725 9.23977L21.8993 8.55291ZM20.7306 7.61046C19.9079 7.11533 18.9686 6.84714 18.0014 6.84714V7.84714C18.7825 7.84714 19.5442 8.06353 20.215 8.46725L20.7306 7.61046Z" fill="black"/>
</svg>
