<svg width="24" height="24" viewBox="0 0 24 24" fill="none" xmlns="http://www.w3.org/2000/svg">
<path d="M9.59 4.59L9.79491 5.04608C9.85072 5.02101 9.90146 4.9859 9.9446 4.9425L9.59 4.59ZM11 8L11.0021 7.5H11V8ZM2 8L1.79509 7.54391C1.58004 7.64053 1.4617 7.87425 1.5111 8.10478C1.56051 8.33531 1.76424 8.5 2 8.5L2 8ZM12.59 19.41L12.9446 19.0575C12.8883 19.0009 12.8193 18.9585 12.7433 18.9341L12.59 19.41ZM14 16V16.5L14.0021 16.5L14 16ZM2 16V15.5C1.7538 15.5 1.54425 15.6792 1.50605 15.9224C1.46786 16.1656 1.6124 16.4005 1.84675 16.4759L2 16ZM17.3769 7.376C17.1814 7.57101 17.181 7.88759 17.376 8.0831C17.571 8.27861 17.8876 8.27901 18.0831 8.084L17.3769 7.376ZM19.5 12V12.5L19.5009 12.5L19.5 12ZM2 11.5C1.72386 11.5 1.5 11.7239 1.5 12C1.5 12.2761 1.72386 12.5 2 12.5V11.5ZM9.9446 4.9425C10.1188 4.76724 10.3337 4.63774 10.57 4.56551L10.2777 3.60917C9.88384 3.72955 9.52578 3.94539 9.2354 4.23749L9.9446 4.9425ZM10.57 4.56551C10.8063 4.49328 11.0569 4.48057 11.2993 4.5285L11.4932 3.54748C11.0892 3.4676 10.6716 3.48879 10.2777 3.60917L10.57 4.56551ZM11.2993 4.5285C11.5417 4.57642 11.7686 4.68351 11.9597 4.84024L12.5938 4.06705C12.2754 3.80584 11.8973 3.62736 11.4932 3.54748L11.2993 4.5285ZM11.9597 4.84024C12.1507 4.99696 12.3001 5.19847 12.3946 5.42685L13.3187 5.04473C13.1613 4.66411 12.9123 4.32826 12.5938 4.06705L11.9597 4.84024ZM12.3946 5.42685C12.489 5.65522 12.5255 5.9034 12.5009 6.1493L13.496 6.24882C13.537 5.83898 13.4761 5.42536 13.3187 5.04473L12.3946 5.42685ZM12.5009 6.1493C12.4764 6.3952 12.3914 6.63122 12.2536 6.83637L13.0837 7.39394C13.3134 7.05202 13.455 6.65866 13.496 6.24882L12.5009 6.1493ZM12.2536 6.83637C12.1158 7.04152 11.9295 7.20945 11.7111 7.32523L12.1796 8.2087C12.5435 8.01574 12.8541 7.73586 13.0837 7.39394L12.2536 6.83637ZM11.7111 7.32523C11.4928 7.441 11.2492 7.50104 11.0021 7.5L10.9979 8.49999C11.4098 8.50172 11.8157 8.40166 12.1796 8.2087L11.7111 7.32523ZM11 7.5H2V8.5H11V7.5ZM2.20491 8.45608L9.79491 5.04608L9.38509 4.13391L1.79509 7.54391L2.20491 8.45608ZM12.2354 19.7625C12.5258 20.0546 12.8838 20.2704 13.2777 20.3908L13.57 19.4345C13.3337 19.3623 13.1188 19.2328 12.9446 19.0575L12.2354 19.7625ZM13.2777 20.3908C13.6716 20.5112 14.0892 20.5324 14.4932 20.4525L14.2993 19.4715C14.0569 19.5194 13.8063 19.5067 13.57 19.4345L13.2777 20.3908ZM14.4932 20.4525C14.8973 20.3726 15.2754 20.1942 15.5938 19.9329L14.9597 19.1598C14.7686 19.3165 14.5417 19.4236 14.2993 19.4715L14.4932 20.4525ZM15.5938 19.9329C15.9123 19.6717 16.1613 19.3359 16.3187 18.9553L15.3946 18.5731C15.3001 18.8015 15.1507 19.003 14.9597 19.1598L15.5938 19.9329ZM16.3187 18.9553C16.4761 18.5746 16.537 18.161 16.496 17.7512L15.5009 17.8507C15.5255 18.0966 15.489 18.3448 15.3946 18.5731L16.3187 18.9553ZM16.496 17.7512C16.455 17.3413 16.3134 16.948 16.0837 16.6061L15.2536 17.1636C15.3914 17.3688 15.4764 17.6048 15.5009 17.8507L16.496 17.7512ZM16.0837 16.6061C15.8541 16.2641 15.5435 15.9843 15.1796 15.7913L14.7111 16.6748C14.9295 16.7905 15.1158 16.9585 15.2536 17.1636L16.0837 16.6061ZM15.1796 15.7913C14.8157 15.5983 14.4098 15.4983 13.9979 15.5L14.0021 16.5C14.2492 16.499 14.4928 16.559 14.7111 16.6748L15.1796 15.7913ZM14 15.5H2V16.5H14V15.5ZM1.84675 16.4759L12.4367 19.8859L12.7433 18.9341L2.15325 15.5241L1.84675 16.4759ZM18.0831 8.084C18.3158 7.85191 18.6021 7.68073 18.9167 7.58561L18.6272 6.62841C18.1553 6.77109 17.7259 7.02786 17.3769 7.376L18.0831 8.084ZM18.9167 7.58561C19.2312 7.49049 19.5644 7.47435 19.8867 7.53863L20.0823 6.55794C19.5988 6.46152 19.0991 6.48573 18.6272 6.62841L18.9167 7.58561ZM19.8867 7.53863C20.209 7.6029 20.5105 7.74561 20.7645 7.95413L21.399 7.1812C21.018 6.86842 20.5657 6.65436 20.0823 6.55794L19.8867 7.53863ZM20.7645 7.95413C21.0185 8.16265 21.2172 8.43056 21.3431 8.73415L22.2669 8.35123C22.0781 7.89583 21.78 7.49398 21.399 7.1812L20.7645 7.95413ZM21.3431 8.73415C21.4689 9.03774 21.518 9.36767 21.486 9.69475L22.4813 9.79213C22.5293 9.30151 22.4556 8.80662 22.2669 8.35123L21.3431 8.73415ZM21.486 9.69475C21.454 10.0218 21.3419 10.336 21.1596 10.6094L21.9916 11.1642C22.2651 10.754 22.4333 10.2828 22.4813 9.79213L21.486 9.69475ZM21.1596 10.6094C20.9773 10.8829 20.7304 11.1072 20.4408 11.2625L20.9134 12.1438C21.3479 11.9108 21.7182 11.5743 21.9916 11.1642L21.1596 10.6094ZM20.4408 11.2625C20.1512 11.4178 19.8277 11.4994 19.4991 11.5L19.5009 12.5C19.9939 12.4991 20.479 12.3768 20.9134 12.1438L20.4408 11.2625ZM19.5 11.5H2V12.5H19.5V11.5Z" fill="black"/>
</svg>
